<svg width="161" height="33" viewBox="0 0 161 33" fill="none" xmlns="http://www.w3.org/2000/svg">
<path fill-rule="evenodd" clip-rule="evenodd" d="M16.0482 3.53166V0H0V3.53166H6.14861V23.2857H9.89964V3.53166H16.0482ZM32.6766 7.76192H28.7322L24.4784 19.2495L20.07 7.76192H16.1642L22.5449 23.5573L18.8712 32.6H22.7382L32.6766 7.76192ZM51.7797 15.5238C51.7797 11.0219 48.2994 7.45142 43.9297 7.45142C41.9574 7.45142 40.256 8.18878 38.9411 9.39193V7.76192H35.2675V32.6H38.9411V21.6557C40.256 22.8588 41.9574 23.5962 43.9297 23.5962C48.2994 23.5962 51.7797 20.0257 51.7797 15.5238ZM48.106 15.5238C48.106 18.1241 46.0565 20.1809 43.4656 20.1809C40.8747 20.1809 38.8251 18.1241 38.8251 15.5238C38.8251 12.9236 40.8747 10.8666 43.4656 10.8666C46.0565 10.8666 48.106 12.9236 48.106 15.5238ZM71.2699 16.1059L71.3085 15.4462C71.2306 10.7891 67.7507 7.45142 63.0328 7.45142C58.2764 7.45142 54.68 10.8666 54.68 15.5238C54.68 20.1809 58.2764 23.5962 63.0715 23.5962C67.1319 23.5962 70.1096 21.2288 71.0378 17.8523H67.364C66.7066 19.4823 65.0824 20.5302 63.0715 20.5302C60.4419 20.5302 58.6631 18.7062 58.4698 16.1059H71.2699ZM58.7791 13.4669C59.4365 11.7205 60.9833 10.5562 63.0715 10.5562C65.121 10.5562 66.5905 11.6816 67.2866 13.4669H58.7791ZM138.254 10.8667H142.159V7.762H138.254V1.39722H134.58V7.762H132.028V10.8667H134.58V18.4734C134.58 21.3453 137.016 23.5963 139.839 23.5963C140.728 23.5963 141.695 23.3634 142.082 23.0917V20.2586H140.303C139.143 20.2586 138.254 19.4048 138.254 18.0465V10.8667ZM130.507 7.56792C130.12 7.49028 129.694 7.4515 129.269 7.4515C127.258 7.4515 125.595 8.38293 124.513 9.8965V7.762H120.839V23.2858H124.513V15.4074C124.513 12.6908 126.523 10.8667 129.192 10.8667C129.694 10.8667 130.12 10.9056 130.507 10.9444V7.56792ZM156.273 7.762H160.217L150.279 32.6001H146.412L150.085 23.5574L143.705 7.762H147.61L152.019 19.2496L156.273 7.762ZM93.3742 0C97.1252 0 100.064 3.02714 100.064 6.75285C100.064 10.5173 97.1252 13.3893 93.3742 13.3893H88.0763V23.2857H84.2866V0H93.3742ZM92.8327 10.0905C94.8435 10.0905 96.3517 8.84859 96.3517 6.79166C96.3517 4.7736 94.8435 3.4541 92.8327 3.4541H88.0762V10.0905H92.8327ZM118.056 20.2586H117.128C116.471 20.2586 115.891 19.6376 115.891 18.2793V13.8162C115.891 9.97406 112.797 7.45142 108.698 7.45142C104.56 7.45142 101.505 9.81878 101.505 13.4669H105.179C105.179 11.6041 106.687 10.5562 108.698 10.5562C110.67 10.5562 112.217 11.6428 112.217 13.5833V14.7088H106.61C103.478 14.7088 101.505 16.4552 101.505 19.1719C101.505 21.8885 103.632 23.5962 106.997 23.5962C109.51 23.5962 111.598 22.6648 112.758 21.1512C113.493 22.6648 114.847 23.5962 116.703 23.5962C117.128 23.5962 117.631 23.4798 118.056 23.2857V20.2586ZM112.216 17.6194C111.752 19.5987 110.089 20.8406 107.924 20.8406C106.338 20.8406 105.333 20.1421 105.333 19.0554C105.333 17.9687 106.261 17.2701 107.691 17.2701H112.216V17.6194Z" fill="#438D57"/>
</svg>
