<svg width="105" height="96" viewBox="0 0 105 96" fill="none" xmlns="http://www.w3.org/2000/svg">
<path fill-rule="evenodd" clip-rule="evenodd" d="M24.8915 0V4.85333H16.4419V32H11.2871V4.85333H2.83747V0H24.8915ZM42.3222 10.6667H47.7427L34.0851 44.8H28.7709L33.8194 32.3733L25.0509 10.6667H30.4183L36.4765 26.4533L42.3222 10.6667ZM63.2071 10.24C69.2121 10.24 73.9949 15.1467 73.9949 21.3333C73.9949 27.52 69.2121 32.4267 63.2071 32.4267C60.4968 32.4267 58.1586 31.4133 56.3517 29.76V44.8H51.3032V10.6667H56.3517V12.9067C58.1586 11.2533 60.4968 10.24 63.2071 10.24ZM62.5694 27.7333C66.1299 27.7333 68.9464 24.9067 68.9464 21.3333C68.9464 17.76 66.1299 14.9333 62.5694 14.9333C59.0088 14.9333 56.1923 17.76 56.1923 21.3333C56.1923 24.9067 59.0088 27.7333 62.5694 27.7333ZM100.832 21.2267L100.779 22.1333H83.1886C83.4543 25.7067 85.8988 28.2133 89.5125 28.2133C92.2759 28.2133 94.5079 26.7733 95.4113 24.5333H100.46C99.1844 29.1733 95.0924 32.4267 89.5125 32.4267C82.9228 32.4267 77.9806 27.7333 77.9806 21.3333C77.9806 14.9333 82.9228 10.24 89.4593 10.24C95.9427 10.24 100.725 14.8267 100.832 21.2267ZM89.5125 14.5067C86.6428 14.5067 84.5171 16.1067 83.6137 18.5067H95.305C94.3484 16.0533 92.329 14.5067 89.5125 14.5067ZM12.4884 51.2C17.6432 51.2 21.682 55.36 21.682 60.48C21.682 65.6533 17.6432 69.6 12.4884 69.6H5.20794V83.2H0V51.2H12.4884ZM11.7444 65.0667C14.5078 65.0667 16.5804 63.36 16.5804 60.5333C16.5804 57.76 14.5078 55.9467 11.7444 55.9467H5.20794V65.0667H11.7444ZM45.1314 79.04H46.4069V83.2C45.8223 83.4667 45.1314 83.6267 44.5469 83.6267C41.9961 83.6267 40.1361 82.3467 39.1264 80.2667C37.5321 82.3467 34.6624 83.6267 31.2082 83.6267C26.5848 83.6267 23.662 81.28 23.662 77.5467C23.662 73.8133 26.3722 71.4133 30.6768 71.4133H38.3824V69.8667C38.3824 67.2 36.2567 65.7067 33.5464 65.7067C30.783 65.7067 28.7105 67.1467 28.7105 69.7067H23.662C23.662 64.6933 27.8602 61.44 33.5464 61.44C39.1795 61.44 43.4309 64.9067 43.4309 70.1867V76.32C43.4309 78.1867 44.228 79.04 45.1314 79.04ZM32.4836 79.84C35.4596 79.84 37.7447 78.1333 38.3824 75.4133V74.9333H32.1647C30.1985 74.9333 28.9231 75.8933 28.9231 77.3867C28.9231 78.88 30.3048 79.84 32.4836 79.84ZM61.8181 61.44C62.4027 61.44 62.9872 61.4933 63.5187 61.6V66.24C62.9872 66.1867 62.4027 66.1333 61.7118 66.1333C58.045 66.1333 55.2816 68.64 55.2816 72.3733V83.2H50.2331V61.8667H55.2816V64.8C56.7696 62.72 59.0547 61.44 61.8181 61.44ZM79.5323 66.1333H74.1649V76C74.1649 77.8667 75.3872 79.04 76.9815 79.04H79.426V82.9333C78.8946 83.3067 77.566 83.6267 76.3438 83.6267C72.4644 83.6267 69.1164 80.5333 69.1164 76.5867V66.1333H65.609V61.8667H69.1164V53.12H74.1649V61.8667H79.5323V66.1333ZM98.9273 61.8667H104.348L90.6903 96H85.3761L90.4246 83.5733L81.6561 61.8667H87.0235L93.0817 77.6533L98.9273 61.8667Z" fill="#438D57"/>
</svg>
