<svg width="12" height="12" viewBox="0 0 12 12" fill="none" xmlns="http://www.w3.org/2000/svg">
<path fill-rule="evenodd" clip-rule="evenodd" d="M0.00317013 0V3.32091C-0.00105671 3.35315 -0.00105671 3.38584 0.00317013 3.41807V3.74169H0.751216H1.35608L2.1034 2.24487H4.86547V9.86924L3.36865 10.6166V11.5969V11.9695H3.71637C3.73194 11.9704 3.74755 11.9704 3.76312 11.9695H8.08338C8.17781 12.0102 8.28481 12.0102 8.37924 11.9695H8.60643V11.2207H8.60351V10.6166L7.10961 9.86924V2.24487H9.86949L10.619 3.74169H11.5964H11.9719V3.37643C11.9722 3.36654 11.9722 3.35786 11.9719 3.34867V0H6.35353H5.99411H5.98023H0.00317013Z" fill="black"/>
</svg>
