<svg width="32" height="32" viewBox="0 0 32 32" fill="none" xmlns="http://www.w3.org/2000/svg">
<path d="M30.6297 3.61193C30.6297 3.61193 28.9646 4.95475 26.628 5.19646C26.628 5.19646 22.9487 1.08737 17.6847 4.65934C15.3213 6.32444 15.1065 9.84272 15.5093 11.105C15.5093 11.105 8.36545 11.669 2.13466 4.36394C2.13466 4.36394 -0.65842 9.19815 3.9609 13.0655C3.9609 13.0655 2.59559 13.2804 1.29776 12.2061C1.29776 12.2061 0.684332 17.2015 6.27056 18.5981C6.27056 18.5981 5.89459 19.2426 3.63862 18.5981C3.63862 18.5981 4.01459 22.6803 9.33223 23.2711C9.33223 23.2711 6.45948 26.2254 0 25.8494C0 25.8494 10.6751 33.8527 22.2235 24.1843C28.6691 18.7055 28.4543 10.8096 28.3468 9.62795C28.3468 9.62795 30.8923 7.69426 31.5533 6.45883C31.5533 6.45883 29.5822 7.10339 27.9708 7.10339C27.9708 7.10326 30.1194 5.97528 30.6297 3.61193Z" fill="#61B2E4"/>
</svg>
