<svg width="610" height="452" viewBox="0 0 610 452" fill="none" xmlns="http://www.w3.org/2000/svg">
<path fill-rule="evenodd" clip-rule="evenodd" d="M188.581 452C170.464 365.401 92.5525 282.698 9.10652 250.502C-21.3091 226.324 31.2257 248.925 74.3556 265.155C117.486 281.385 167.99 312.592 225.87 358.777C193.368 297.183 168.072 213.497 123.465 158.427C101.541 131.361 46.0746 96.3784 55.2842 96.2726C89.8827 103.101 121.366 118.555 149.733 142.634C178.101 166.713 223.709 226.426 286.558 321.773C279.55 219.918 267.942 162.761 254.039 96.2726C251.033 81.8984 239.994 39.6143 232.561 0C257.634 23.3505 273.297 42.7537 279.55 58.2094C285.179 72.1223 294.778 100.264 308.347 142.634L339.124 317.367C384.958 177.975 451.286 104.277 538.109 96.2726C577.288 92.6606 600.939 96.6627 609.062 108.279C556.918 114.476 513.951 134.109 480.161 167.179C446.371 200.248 413.789 259.576 382.416 345.162C430.739 289.978 468.769 258.424 496.505 250.502C524.241 242.579 553.467 244.763 584.184 257.054C537.643 273.955 508.416 286.696 496.505 295.278C463.723 318.896 423.977 372.883 422.502 385.655C420.223 405.389 420.223 382.312 422.502 428.307L188.581 452Z" fill="#438D57"/>
</svg>
