<svg width="362" height="499" viewBox="0 0 362 499" fill="none" xmlns="http://www.w3.org/2000/svg">
<path fill-rule="evenodd" clip-rule="evenodd" d="M221.021 499C199.781 403.396 108.437 312.094 10.6036 276.549C-25.0561 249.858 36.5364 274.808 87.1025 292.726C137.669 310.644 196.881 345.096 264.74 396.084C226.634 328.085 196.977 235.696 144.679 174.9C118.975 145.02 53.9455 106.4 64.7429 106.283C105.307 113.822 142.218 130.883 175.476 157.466C208.735 184.048 262.207 249.97 335.891 355.232C327.675 242.786 314.066 179.686 297.765 106.283C294.242 90.4144 281.299 43.7335 272.585 0C301.98 25.7786 320.344 47.1993 327.675 64.2621C334.274 79.6218 345.528 110.69 361.437 157.466L397.521 350.368C451.257 196.481 529.021 115.12 630.813 106.283C676.747 102.296 704.476 106.714 714 119.538C652.865 126.379 602.49 148.054 562.874 184.562C523.259 221.07 485.059 286.567 448.277 381.053C504.931 320.13 549.518 285.296 582.036 276.549C614.554 267.803 648.819 270.214 684.832 283.783C630.266 302.441 596.001 316.507 582.036 325.982C543.602 352.056 497.004 411.656 495.274 425.756C492.602 447.542 492.602 422.066 495.274 472.844L221.021 499Z" fill="#438D57"/>
</svg>
