<svg width="485" height="315" viewBox="0 0 485 315" fill="none" xmlns="http://www.w3.org/2000/svg">
<path fill-rule="evenodd" clip-rule="evenodd" d="M16.8014 134.802C22.4517 109.118 16.6056 88.3872 16.8014 65.181C17.0899 30.9948 45.2423 3.91388 77.6924 3.91388C149.657 3.91388 162.156 37.833 183.009 48.5462C196.534 55.4943 211.036 55.8652 225.877 55.4774C232.253 55.3108 233.125 53.4442 239.876 49.1916C253.232 40.7782 264.788 30.0934 277.684 20.9759C310.496 -2.22073 352.37 -6.45393 390.537 9.65427C398.623 13.067 413.532 23.0577 417.144 25.93C447.141 49.786 474.453 83.6643 482.427 122.026C484.044 129.804 485.995 153.446 484.417 160.486C472.43 213.954 451.063 205.887 430.016 229.807C407.071 255.884 384.093 300.888 348.477 311.536C337.805 314.726 327.337 314.391 316.251 314.554C308.603 314.666 300.895 315.499 293.305 314.554C281.101 313.034 251.63 304.585 240.412 299.514C211.09 286.261 186.294 265.618 156.702 252.923C126.445 239.943 91.6396 246.602 60.0737 247.896C51.6885 248.24 43.278 248.332 34.897 247.896C30.9777 247.693 26.1543 245.8 22.6652 243.933C6.44109 235.253 3.77326 226.576 0.704305 208.868C0.387585 207.04 0.273367 205.177 0.241004 203.323C0.118848 196.323 -0.234085 189.305 0.241004 182.32C0.956943 171.795 11.1511 160.486 16.8014 134.802Z" fill="#F03137"/>
</svg>
